<svg xmlns="http://www.w3.org/2000/svg" xmlns:xlink="http://www.w3.org/1999/xlink" version="1.1" width="1000" height="1000" viewBox="0 0 1000 1000" xml:space="preserve">
<desc>Created with Fabric.js 3.5.0</desc>
<defs>
</defs>
<rect x="0" y="0" width="100%" height="100%" fill="#ffffff"/>
<g transform="matrix(0.031 0 0 -0.0316 499.8533 500.1973)" id="992868">
<path style="stroke: none; stroke-width: 1; stroke-dasharray: none; stroke-linecap: butt; stroke-dashoffset: 0; stroke-linejoin: miter; stroke-miterlimit: 4; is-custom-font: none; font-file-url: none; fill: rgb(0,0,0); fill-rule: nonzero; opacity: 1;" vector-effect="non-scaling-stroke" transform=" translate(-7668.3386, -7864.0058)" d="M 6720 15593 c -956 -69 -1770 -387 -2415 -944 c -104 -90 -305 -290 -395 -394 c -91 -105 -257 -333 -342 -468 c -44 -72 -127 -220 -183 -328 c -129 -249 -178 -323 -284 -430 c -130 -130 -248 -201 -473 -283 c -293 -106 -502 -200 -703 -316 c -796 -458 -1354 -1161 -1670 -2104 c -325 -967 -294 -1881 91 -2761 c 105 -241 229 -461 398 -708 c 168 -245 205 -308 226 -375 c 30 -96 26 -187 -14 -365 c -38 -167 -68 -336 -88 -497 c -18 -142 -17 -680 0 -820 c 59 -467 188 -884 402 -1305 c 191 -376 406 -678 690 -969 c 233 -239 440 -408 710 -581 c 167 -107 529 -287 713 -355 c 649 -240 1321 -303 2030 -190 c 66 10 138 0 189 -26 c 18 -9 101 -83 183 -163 c 321 -313 593 -505 986 -695 c 526 -255 1110 -386 1718 -386 c 1296 1 2509 640 3220 1699 c 176 262 282 466 431 833 c 37 90 92 157 154 186 c 24 12 91 33 147 47 c 835 210 1542 691 2074 1409 c 444 600 693 1228 776 1956 c 20 173 17 620 -5 800 c -90 740 -350 1373 -825 2010 c -128 171 -139 242 -78 500 c 37 159 66 324 89 510 c 17 141 17 689 0 830 c -61 497 -182 903 -397 1331 c -485 965 -1361 1696 -2390 1994 c -506 146 -1070 189 -1590 119 c -200 -27 -311 -9 -426 69 c -26 18 -112 91 -191 164 c -210 193 -380 325 -593 459 c -478 302 -1042 493 -1605 544 c -105 9 -450 11 -560 3 z m 320 -1004 c 502 -35 910 -164 1337 -422 c 246 -149 293 -194 271 -258 c -6 -16 -24 -40 -42 -54 c -17 -13 -263 -156 -546 -318 c -599 -342 -933 -535 -1480 -857 c -217 -128 -539 -314 -714 -414 c -365 -206 -434 -260 -500 -385 c -74 -142 -69 39 -70 -2333 l -1 -2127 l -21 -28 c -45 -60 -37 -64 -644 286 c -305 176 -572 334 -594 352 c -21 18 -47 51 -57 73 c -18 39 -19 109 -19 1876 c 0 1157 4 1879 10 1955 c 54 637 307 1230 723 1696 c 494 554 1197 902 1937 957 c 165 13 246 13 410 1 z m 3720 -1209 c 1289 -91 2337 -966 2644 -2210 c 63 -252 81 -410 81 -715 c 0 -286 -8 -357 -46 -391 c -29 -26 -83 -19 -158 19 c -104 53 -1488 849 -2414 1389 c -351 205 -578 331 -630 350 c -68 25 -101 32 -192 35 c -194 9 -231 -7 -735 -302 c -689 -403 -2943 -1699 -3121 -1794 c -105 -56 -145 -63 -175 -30 c -18 20 -19 47 -22 608 c -2 403 0 609 8 661 c 23 149 85 236 244 339 c 50 32 312 184 581 336 c 782 443 1589 904 2010 1150 c 215 125 422 243 460 263 c 448 226 958 327 1465 292 z m -7858 -1631 c 49 -26 47 36 49 -1715 c 1 -901 -2 -1671 -6 -1710 c -9 -89 8 -226 40 -318 c 41 -119 125 -227 244 -315 c 36 -27 341 -206 676 -399 c 575 -329 2228 -1282 2490 -1435 c 313 -183 486 -290 495 -307 c 17 -31 12 -55 -17 -82 c -16 -15 -192 -120 -393 -233 c -201 -114 -454 -259 -563 -322 c -183 -107 -202 -116 -260 -120 c -84 -7 -115 6 -402 172 c -799 461 -2430 1405 -2595 1503 c -378 223 -529 332 -739 537 c -465 452 -747 1015 -848 1690 c -27 184 -25 620 5 810 c 122 783 512 1437 1140 1907 c 180 135 420 272 577 329 c 59 21 79 23 107 8 z m 6883 -818 c 22 -10 119 -63 215 -118 c 96 -55 470 -266 830 -468 c 1191 -669 1722 -981 2145 -1260 c 466 -309 801 -683 1030 -1150 c 164 -333 252 -643 286 -998 c 16 -179 7 -534 -19 -704 c -79 -510 -287 -984 -612 -1393 c -104 -131 -312 -339 -450 -450 c -256 -205 -634 -420 -739 -420 c -38 0 -68 37 -75 93 c -4 23 -8 839 -10 1812 c -4 1564 -7 1777 -21 1828 c -34 128 -108 240 -212 320 c -32 25 -297 182 -588 349 c -292 168 -897 517 -1345 775 c -448 259 -1002 577 -1230 707 c -476 273 -514 297 -530 336 c -14 33 -6 52 37 91 c 26 25 1070 626 1137 655 c 43 19 104 17 151 -5 z m -2010 -1185 c 28 -12 138 -75 245 -138 c 188 -111 873 -503 1090 -623 c 131 -74 193 -129 219 -200 c 19 -51 20 -83 22 -922 l 2 -868 l -23 -52 c -12 -29 -41 -70 -64 -90 c -22 -21 -158 -106 -301 -188 c -143 -82 -458 -263 -700 -403 c -242 -140 -464 -266 -494 -280 c -45 -21 -64 -24 -117 -19 c -63 5 -76 12 -622 330 c -306 179 -649 378 -762 442 c -113 65 -213 124 -222 133 c -10 8 -26 33 -37 56 c -19 40 -20 68 -23 936 l -3 895 l 23 47 c 13 26 40 60 60 76 c 20 16 244 148 497 294 c 253 146 576 334 718 417 c 143 84 275 159 295 166 c 59 22 140 18 197 -9 z m 2420 -1400 c 39 -18 243 -134 455 -258 c 212 -124 437 -253 500 -289 c 63 -35 136 -84 161 -109 c 87 -87 80 93 76 -1996 c -3 -1348 -7 -1872 -15 -1934 c -51 -363 -119 -618 -242 -895 c -100 -226 -243 -463 -396 -655 c -94 -117 -339 -361 -454 -452 c -398 -314 -828 -507 -1328 -595 c -149 -26 -172 -28 -462 -28 c -271 0 -320 3 -435 23 c -444 77 -829 227 -1176 457 c -197 131 -227 181 -150 247 c 21 18 90 62 152 97 c 63 36 510 294 994 574 c 484 280 1096 633 1360 784 c 264 150 509 297 545 326 c 118 95 205 227 247 372 c 16 56 17 186 15 2075 c -2 1108 1 2070 6 2137 c 12 169 24 179 147 119 z m -886 -2341 c 16 -8 33 -27 38 -42 c 5 -16 6 -286 2 -628 c -7 -650 -9 -677 -64 -771 c -34 -57 -120 -133 -223 -197 c -48 -30 -375 -217 -727 -417 c -667 -379 -1357 -775 -1800 -1035 c -325 -190 -417 -239 -579 -310 c -941 -409 -1964 -332 -2781 210 c -170 113 -307 226 -465 384 c -464 465 -721 964 -827 1603 c -23 135 -26 726 -4 798 c 24 83 64 106 135 76 c 18 -7 219 -121 447 -253 c 228 -132 801 -463 1274 -735 c 473 -273 977 -564 1120 -647 c 152 -88 287 -160 325 -172 c 94 -31 214 -29 305 3 c 45 16 537 295 1380 785 c 721 418 1510 876 1755 1018 c 245 142 479 277 520 301 c 80 47 121 54 169 29 z" stroke-linecap="round"/>
</g>
</svg>